<?xml version="1.0" encoding="utf-8"?>
<!-- Generator: Adobe Illustrator 28.3.0, SVG Export Plug-In . SVG Version: 6.00 Build 0)  -->
<svg version="1.1" id="Layer_1" xmlns="http://www.w3.org/2000/svg" xmlns:xlink="http://www.w3.org/1999/xlink" x="0px" y="0px"
	 viewBox="0 0 190 43" enable-background="new 0 0 190 43" xml:space="preserve">
<path fill="#1870B9" d="M171,43H19.8C9.1,43,0.4,34.4,0.4,23.7v-4.3C0.4,8.7,9.1,0,19.8,0L171,0c10.7,0,19.4,8.7,19.4,19.4v4.3
	C190.4,34.4,181.7,43,171,43z"/>
<g>
	<g opacity="0.99">
		<text transform="matrix(1 0 0 1 55.4603 27.3783)" fill="#FFFFFF" font-family="-apple-system, BlinkMacSystemFont, 'Segoe UI', 'Noto Sans', Helvetica, Arial, sans-serif, 'Apple Color Emoji', 'Segoe UI Emoji'" font-size="18px">Ask Question</text>
	</g>
</g>
<path fill="none" stroke="#FFFFFF" stroke-width="1.4441" stroke-linecap="round" stroke-linejoin="round" stroke-miterlimit="2" d="
	M37.6,17.3c1.1-1,3-1,4.1,0c1.1,1,1.1,2.6,0,3.6c-0.2,0.2-0.4,0.3-0.6,0.4c-0.7,0.3-1.4,1-1.4,1.8v0.7 M48.3,21.6
	c0,4.8-3.9,8.7-8.7,8.7s-8.7-3.9-8.7-8.7s3.9-8.7,8.7-8.7S48.3,16.8,48.3,21.6 M39.6,26.7L39.6,26.7L39.6,26.7L39.6,26.7L39.6,26.7z
	"/>
</svg>
