<?xml version="1.0" encoding="utf-8"?>
<!-- Generator: Adobe Illustrator 28.3.0, SVG Export Plug-In . SVG Version: 6.00 Build 0)  -->
<svg version="1.1" id="Layer_1" xmlns="http://www.w3.org/2000/svg" xmlns:xlink="http://www.w3.org/1999/xlink" x="0px" y="0px"
	 viewBox="0 0 158.8 43" enable-background="new 0 0 158.8 43" xml:space="preserve">
<path fill="#1870B9" d="M142.4,43H15.6c-8.8,0-16-8.9-16-19.7v-3.7C-0.4,8.9,6.8,0,15.6,0h126.8c8.8,0,16,8.9,16,19.7v3.7
	C158.4,34.2,151.2,43,142.4,43z"/>
<g>
	<g opacity="0.99">
		<text transform="matrix(1 0 0 1 51.7436 28.6997)" fill="#FFFFFF" font-family="-apple-system, BlinkMacSystemFont, 'Segoe UI', 'Noto Sans', Helvetica, Arial, sans-serif, 'Apple Color Emoji', 'Segoe UI Emoji'" font-size="18px">Log Issue</text>
	</g>
</g>
<path fill="#FFFFFF" d="M28.5,30.2h14.7c1.6,0,2.6-1.2,2.6-2.6c0-0.4-0.1-0.9-0.4-1.3l-7.3-12.8c-0.5-0.9-1.4-1.3-2.3-1.3
	c-0.9,0-1.8,0.5-2.3,1.3l-7.3,12.8c-0.2,0.4-0.4,0.8-0.4,1.3C25.9,29,26.9,30.2,28.5,30.2 M28.6,28.7c-0.7,0-1.1-0.5-1.1-1.1
	c0-0.2,0-0.4,0.1-0.6l7.3-12.8c0.2-0.4,0.6-0.5,1-0.5s0.7,0.2,0.9,0.5L44.2,27c0.1,0.2,0.1,0.4,0.1,0.6c0,0.6-0.5,1.1-1.1,1.1H28.6z
	 M35.9,23.8c0.5,0,0.7-0.3,0.7-0.8l0.1-5c0-0.5-0.4-0.8-0.9-0.8s-0.9,0.4-0.9,0.8l0.1,5C35.1,23.5,35.4,23.8,35.9,23.8 M35.9,26.9
	c0.6,0,1-0.4,1-1s-0.5-1-1-1c-0.6,0-1,0.4-1,1C34.8,26.4,35.3,26.9,35.9,26.9"/>
</svg>
