<?xml version="1.0" encoding="utf-8"?>
<!-- Generator: Adobe Illustrator 28.3.0, SVG Export Plug-In . SVG Version: 6.00 Build 0)  -->
<svg version="1.1" id="Layer_1" xmlns="http://www.w3.org/2000/svg" xmlns:xlink="http://www.w3.org/1999/xlink" x="0px" y="0px"
	 viewBox="0 0 215.4 43" enable-background="new 0 0 215.4 43" xml:space="preserve">
<path fill="#1870B9" d="M196.2,43.2H19.6c-10.7,0-19.4-8.7-19.4-19.4v-4.2C0.2,8.8,8.9,0.1,19.6,0.1h176.6
	c10.7,0,19.4,8.7,19.4,19.4v4.2C215.6,34.5,206.9,43.2,196.2,43.2z"/>
<g>
	<g opacity="0.99">
		<text transform="matrix(1 0 0 1 54.4915 27.4185)" fill="#FFFFFF" font-family="-apple-system, BlinkMacSystemFont, 'Segoe UI', 'Noto Sans', Helvetica, Arial, sans-serif, 'Apple Color Emoji', 'Segoe UI Emoji'" font-size="18px">Request Feature</text>
	</g>
</g>
<g>
	<path fill="none" stroke="#FFFFFF" stroke-width="1.2763" stroke-linejoin="round" stroke-miterlimit="1.5" d="M41.8,13.9
		c-0.1-0.3-0.3-0.5-0.6-0.5h-2.8c-0.3,0-0.5,0.2-0.6,0.5l-0.4,1.7c0,0.2-0.2,0.3-0.3,0.4l-0.8,0.5c-0.1,0.1-0.3,0.1-0.5,0.1L34,16
		c-0.3-0.1-0.6,0-0.7,0.3l-1.4,2.5c-0.1,0.3-0.1,0.6,0.1,0.8l1.3,1.2c0.1,0.1,0.2,0.3,0.2,0.5v1c0,0.2-0.1,0.3-0.2,0.5L32,23.8
		c-0.2,0.2-0.3,0.5-0.1,0.8l1.4,2.5c0.1,0.3,0.4,0.4,0.7,0.3l1.7-0.5c0.2,0,0.4,0,0.5,0.1l0.6,0.4c0.1,0.1,0.2,0.2,0.3,0.3l0.6,1.9
		c0.1,0.3,0.3,0.4,0.6,0.4h2.9c0.3,0,0.5-0.2,0.6-0.4l0.6-1.9c0-0.1,0.1-0.3,0.3-0.3l0.6-0.4c0.2-0.1,0.3-0.1,0.5-0.1l1.7,0.5
		c0.3,0.1,0.6,0,0.7-0.3l1.4-2.5c0.1-0.3,0.1-0.6-0.1-0.8l-1.2-1.2c-0.1-0.1-0.2-0.3-0.2-0.5v-1c0-0.2,0.1-0.3,0.2-0.5l1.2-1.2
		c0.2-0.2,0.3-0.5,0.1-0.8l-1.4-2.5c-0.1-0.3-0.4-0.4-0.7-0.3l-1.7,0.5c-0.2,0-0.3,0-0.5-0.1l-0.8-0.5c-0.2-0.1-0.3-0.2-0.3-0.4
		L41.8,13.9z"/>
	<path fill="none" stroke="#FFFFFF" stroke-width="1.2763" stroke-linejoin="round" stroke-miterlimit="1.5" d="M43,21.7
		c0,1.8-1.4,3.2-3.2,3.2c-1.8,0-3.2-1.4-3.2-3.2s1.4-3.2,3.2-3.2C41.5,18.5,43,19.9,43,21.7z"/>
</g>
</svg>
