<?xml version="1.0" encoding="utf-8"?>
<!-- Generator: Adobe Illustrator 28.3.0, SVG Export Plug-In . SVG Version: 6.00 Build 0)  -->
<svg version="1.1" id="Layer_1" xmlns="http://www.w3.org/2000/svg" xmlns:xlink="http://www.w3.org/1999/xlink" x="0px" y="0px"
	 viewBox="0 0 223.7 43" height="30px" width="156px" enable-background="new 0 0 223.7 43" xml:space="preserve">
<path fill="#1870B9" d="M204.8,43H19.9C9.1,43,0.4,34.4,0.4,23.6v-4.2C0.4,8.7,9.1,0,19.9,0l184.9,0c10.7,0,19.4,8.7,19.4,19.4v4.2
	C224.2,34.4,215.5,43,204.8,43z"/>
<g opacity="0.99">
	<text transform="matrix(1 0 0 1 57.5867 27.1959)" fill="#FFFFFF" font-family="-apple-system, BlinkMacSystemFont, 'Segoe UI', 'Noto Sans', Helvetica, Arial, sans-serif, 'Apple Color Emoji', 'Segoe UI Emoji'" font-size="18px">Search Questions</text>
</g>
<path fill="#FFFFFF" d="M51.8,28.8l-3.9-4c2.6-3.4,1.9-8.2-1.4-10.7c-3.4-2.6-8.2-1.9-10.7,1.4c-2.6,3.4-1.9,8.2,1.4,10.7
	c2.8,2.1,6.6,2.1,9.3,0l4,4c0.4,0.4,1,0.4,1.4,0C52.2,29.8,52.2,29.2,51.8,28.8L51.8,28.8z M36.1,20.2c0-3.1,2.5-5.7,5.7-5.7
	s5.7,2.5,5.7,5.7s-2.5,5.7-5.7,5.7C38.7,25.8,36.1,23.3,36.1,20.2"/>
</svg>
