<?xml version="1.0" encoding="utf-8"?>
<!-- Generator: Adobe Illustrator 28.3.0, SVG Export Plug-In . SVG Version: 6.00 Build 0)  -->
<svg version="1.1" id="Layer_1" xmlns="http://www.w3.org/2000/svg" xmlns:xlink="http://www.w3.org/1999/xlink" x="0px" y="0px"
	 viewBox="0 0 208.6 43" height="30px" width="156px" enable-background="new 0 0 208.6 43" xml:space="preserve">
<path fill="#1870B9" d="M189.2,43H19.4C8.6,43,0,34.4,0,23.6v-4.2C0,8.7,8.6,0,19.4,0l169.8,0c10.7,0,19.4,8.7,19.4,19.4v4.2
	C208.6,34.4,199.9,43,189.2,43z"/>
<g>
	<g opacity="0.99">
		<text transform="matrix(1 0 0 1 58.6558 27.5265)" fill="#FFFFFF" font-family="-apple-system, BlinkMacSystemFont, 'Segoe UI', 'Noto Sans', Helvetica, Arial, sans-serif, 'Apple Color Emoji', 'Segoe UI Emoji'" font-size="18px">Documentation</text>
	</g>
</g>
<g>
	
		<path fill="none" stroke="#FFFFFF" stroke-width="1.3457" stroke-linecap="round" stroke-linejoin="round" stroke-miterlimit="2" d="
		M38.2,12.5h8.5l4,4v11.2"/>
	
		<path fill="none" stroke="#FFFFFF" stroke-width="1.3457" stroke-linecap="round" stroke-linejoin="round" stroke-miterlimit="2" d="
		M34.6,29.1V16.5c0-0.7,0.6-1.3,1.3-1.3h8.7c0.1,0,0.3,0.1,0.4,0.2l2.8,2.8c0.1,0.1,0.2,0.2,0.2,0.4v10.5c0,0.7-0.6,1.3-1.3,1.3H36
		C35.2,30.4,34.6,29.8,34.6,29.1"/>
	
		<path fill="none" stroke="#FFFFFF" stroke-width="1.3457" stroke-linecap="round" stroke-linejoin="round" stroke-miterlimit="2" d="
		M44.5,15.1v3.1c0,0.3,0.2,0.5,0.5,0.5l0,0h3.1"/>
</g>
</svg>
